<svg xmlns="http://www.w3.org/2000/svg" version="1.1" xlink="http://www.w3.org/1999/xlink" xmlns:svgjs="http://svgjs.com/svgjs" width="100%" height="100%" preserveAspectRatio="xMidYMid meet" viewBox="0 0.00007691352948313579 216.0811309814453 146.9999237060547" overflow="visible"><defs id="SvgjsDefs51448"></defs><g id="SvgjsG51449" transform="scale(0.4612978431673896)" opacity="1"><g id="SvgjsG51450" class="aJAAWmUzo" transform="translate(100.24327330968997, -9.10103672762583) scale(2.67944171147466)" light-content="false" non-strokable="false" fill="#2b2b2b"><path d="M14 67.629c-2.36 3.988-3.059 8.617-1.898 13.113A17.09 17.09 0 0 0 20 91.222a17.087 17.087 0 0 0 12.996 1.832 17.077 17.077 0 0 0 10.484-7.898 17.087 17.087 0 0 0 1.832-12.996c-1.187-4.606-3.977-8.098-8.008-10.555a17.131 17.131 0 0 0-12.836-1.782l-.05.016a17.097 17.097 0 0 0-10.423 7.785zm68.875-6.348c.715 0 1.363.29 1.828.758.484.54.758 1.09.758 1.832a2.59 2.59 0 0 1-2.586 2.586c-.71 0-1.355-.289-1.824-.758a2.572 2.572 0 0 1-.004-3.652 2.584 2.584 0 0 1 1.832-.762zm.414 2.172a.588.588 0 0 0-.414-.172.604.604 0 0 0-.418.168.604.604 0 0 0-.168.418.588.588 0 0 0 .586.586.588.588 0 0 0 .586-.586.563.563 0 0 0-.172-.414zm-2.91-8.672c.715 0 1.363.29 1.828.758.484.54.758 1.09.758 1.832a2.59 2.59 0 0 1-2.586 2.586 2.569 2.569 0 0 1-1.824-.758 2.572 2.572 0 0 1-.004-3.652 2.584 2.584 0 0 1 1.832-.762zm0 2a.604.604 0 0 0-.418.168.604.604 0 0 0-.168.418.588.588 0 0 0 .586.586.588.588 0 0 0 .445-.972c-.133-.125-.254-.204-.445-.204zm-5.18 2.98c.715 0 1.363.29 1.828.759.485.539.758 1.09.758 1.832a2.59 2.59 0 0 1-2.586 2.586c-.71 0-1.355-.29-1.824-.758a2.572 2.572 0 0 1-.004-3.652 2.584 2.584 0 0 1 1.832-.762zm.414 2.173a.588.588 0 0 0-.414-.172.604.604 0 0 0-.418.168.604.604 0 0 0-.168.418.588.588 0 0 0 .586.586.588.588 0 0 0 .586-.586.563.563 0 0 0-.172-.414zm-40.28-49.727a1.5 1.5 0 0 1 0-3h.218v-.219a1.5 1.5 0 0 1 3 0v.219h.215a1.5 1.5 0 0 1 0 3h-.215v.215a1.5 1.5 0 0 1-3 0v-.215zM67.87 79.66a1.5 1.5 0 0 1 0-3h.219v-.219a1.5 1.5 0 0 1 3 0v.219h.215a1.5 1.5 0 0 1 0 3h-.215v.215a1.5 1.5 0 0 1-3 0v-.215zM7.793 50.933a1.5 1.5 0 0 1 0-3h.219v-.219a1.5 1.5 0 0 1 3 0v.219h.215a1.5 1.5 0 0 1 0 3h-.215v.215a1.5 1.5 0 0 1-3 0v-.215zm76.57-35.293a1.5 1.5 0 0 1 0-3h.219v-.219a1.5 1.5 0 0 1 3 0v.219h.215a1.5 1.5 0 0 1 0 3h-.215v.215a1.5 1.5 0 0 1-3 0v-.215zm4.406 27.664a1.5 1.5 0 0 1 0-3h.22v-.219a1.5 1.5 0 0 1 3 0v.219h.214a1.5 1.5 0 0 1 0 3h-.215v.215a1.5 1.5 0 0 1-3 0v-.215zM43.925 32.679a1.5 1.5 0 0 1 0-3h.22v-.219a1.5 1.5 0 0 1 3 0v.219h.214a1.5 1.5 0 0 1 0 3h-.215v.215a1.5 1.5 0 0 1-3 0v-.215zm11.906 15.297a1.5 1.5 0 0 1 0-3h.22v-.219a1.5 1.5 0 0 1 3 0v.219h.214a1.5 1.5 0 0 1 0 3h-.215v.215a1.5 1.5 0 0 1-3 0v-.215zm6.375-38.051a7.632 7.632 0 0 1 5.739-1.153 7.63 7.63 0 0 1 4.875 3.25 7.632 7.632 0 0 1 1.152 5.739 7.64 7.64 0 0 1-3.25 4.875 7.632 7.632 0 0 1-5.738 1.152 7.64 7.64 0 0 1-4.875-3.25 7.632 7.632 0 0 1-1.153-5.738 7.64 7.64 0 0 1 3.25-4.875zm5.165 1.785a4.661 4.661 0 0 0-3.504.695 4.64 4.64 0 0 0-1.973 2.965 4.665 4.665 0 0 0 .695 3.504 4.64 4.64 0 0 0 2.965 1.973 4.645 4.645 0 0 0 5.477-3.66 4.661 4.661 0 0 0-.696-3.504 4.64 4.64 0 0 0-2.964-1.973zm9.746 17.922a4.451 4.451 0 0 1 4.238-4.617h.039a4.451 4.451 0 0 1 3.465 7.441 4.45 4.45 0 0 1-3.082 1.45h-.04a4.451 4.451 0 0 1-4.616-4.239v-.04zm3.367-1.152c-.246.273-.395.64-.38 1.039.02.41.204.77.477 1.02a1.47 1.47 0 0 0 1.04.378 1.464 1.464 0 0 0 1.398-1.531c-.02-.399-.2-.754-.477-1.004a1.493 1.493 0 0 0-1.039-.383c-.41.02-.77.203-1.02.477zM53.35 85.87c0-1.199.344-2.238 1.16-3.132.852-.938 1.969-1.414 3.223-1.453a4.45 4.45 0 0 1 4.516 4.238v.039a4.451 4.451 0 0 1-4.239 4.617h-.039a4.451 4.451 0 0 1-3.168-1.156c-.937-.856-1.371-1.902-1.453-3.152zm3-.003a1.456 1.456 0 0 0 2.906-.196c-.02-.41-.203-.77-.476-1.02a1.467 1.467 0 0 0-.973-.378c-.438.02-.785.144-1.086.477-.297.324-.395.687-.375 1.117zM43.777 8.019A4.451 4.451 0 0 1 48.015 3.4h.04a4.45 4.45 0 0 1 4.617 4.238v.04a4.451 4.451 0 0 1-4.239 4.617h-.039a4.451 4.451 0 0 1-4.617-4.238zm3.367-1.153a1.467 1.467 0 0 0-.379 1.04 1.463 1.463 0 0 0 1.516 1.398c.41-.02.77-.203 1.02-.477.245-.273.394-.64.378-1.039-.02-.41-.203-.77-.476-1.02a1.466 1.466 0 0 0-1.04-.378c-.41.02-.769.203-1.019.476zM31.929 44.827a4.444 4.444 0 0 1 1.16-3.07 4.458 4.458 0 0 1 3.086-1.45 4.443 4.443 0 0 1 4.649 4.235v.04a4.451 4.451 0 0 1-1.157 3.167c-.855.938-1.968 1.414-3.226 1.453a4.422 4.422 0 0 1-3.059-1.16c-.945-.86-1.406-1.96-1.453-3.223zm3.371-1.054a1.448 1.448 0 0 0-.379.972c.02.438.145.786.477 1.09.324.297.687.395 1.117.375a1.456 1.456 0 0 0 .844-2.527 1.47 1.47 0 0 0-1.055-.38c-.398.02-.754.2-1.004.477zm37.152-14.957a1.494 1.494 0 1 1-2.894.746l-.504-1.946a1.494 1.494 0 1 1 2.894-.746zm2.176 8.418a1.494 1.494 0 1 1-2.895.746l-.503-1.946a1.494 1.494 0 1 1 2.894-.746zm2.176 8.422a1.494 1.494 0 1 1-2.895.746l-.504-1.946a1.494 1.494 0 1 1 2.895-.746zm-54.75-1.52a1.494 1.494 0 1 1-2.895.746l-.504-1.945a1.494 1.494 0 1 1 2.895-.746zm2.176 8.422a1.494 1.494 0 1 1-2.895.746l-.504-1.945a1.494 1.494 0 1 1 2.895-.746zm28.316-33.02a1.494 1.494 0 1 1-.747-2.895l1.946-.503a1.494 1.494 0 1 1 .746 2.894zm-8.418 2.172a1.494 1.494 0 1 1-.747-2.895l1.946-.504a1.494 1.494 0 1 1 .746 2.895zm-8.422 2.176a1.494 1.494 0 1 1-.746-2.895l1.945-.504a1.494 1.494 0 1 1 .746 2.895zM61.472 67.8a1.494 1.494 0 1 1-.746-2.895l1.945-.504a1.494 1.494 0 1 1 .746 2.895zm-8.418 2.175a1.494 1.494 0 1 1-.746-2.894l1.945-.504a1.494 1.494 0 1 1 .746 2.895zm20.023-18.383a11.191 11.191 0 0 1 8.425-1.69 11.192 11.192 0 0 1 7.075 4.651c1.71 2.575 2.375 5.496 1.773 8.547-.602 3.035-2.332 5.524-4.894 7.235a11.196 11.196 0 0 1-8.305 1.613 11.192 11.192 0 0 1-7.074-4.652c-1.711-2.555-2.371-5.516-1.774-8.547a11.19 11.19 0 0 1 4.774-7.156zm7.851 1.25c-2.074-.41-4.304-.03-6.191 1.235s-3.086 3.176-3.492 5.246c-.414 2.102.007 4.418 1.234 6.191a8.201 8.201 0 0 0 5.246 3.493c2.125.421 4.395-.012 6.192-1.235a8.201 8.201 0 0 0 3.492-5.246 8.234 8.234 0 0 0-1.223-6.176l-.012-.015a8.221 8.221 0 0 0-5.246-3.496zM12.733 34.643c.016.247.043.473.082.688.114.61.309 1.035.582 1.219l.106.058c.457.207 1.152.024 1.988-.472a11.15 11.15 0 0 1-1.398-.633l-.04-.02c-.464-.25-.906-.53-1.32-.836zm5.606-.87c1.543-1.61 3.11-3.774 4.476-6.305l.008-.012c1.375-2.54 2.336-5.04 2.84-7.215a8.252 8.252 0 0 0-8.613-2.543 8.215 8.215 0 0 0-4.895 3.973c-1.094 2.016-1.25 4.144-.636 6.336a8.176 8.176 0 0 0 1.183 2.398c.738 1.004 1.594 1.785 2.684 2.39.949.513 1.879.837 2.953.973zm7.746-17.2c-.043-1.011-.281-1.707-.735-1.953-.304-.164-.793-.101-1.406.153a5.25 5.25 0 0 0-.613.304c.477.18.95.395 1.414.645.473.258.922.539 1.34.851zm-6.77-2.207c1.192-1.085 2.375-1.898 3.48-2.359 1.454-.605 2.817-.648 3.97-.027 1.914 1.035 2.601 3.61 2.175 6.922-.027.203-.058.41-.09.617a11.3 11.3 0 0 1 1.317 2.87c.812 2.747.59 5.798-.867 8.513l-.02.039a11.198 11.198 0 0 1-6.597 5.398l-.079.027a11.231 11.231 0 0 1-3.12.47c-.157.144-.313.28-.47.413-2.523 2.152-5.03 2.985-6.933 1.992l-.05-.027c-1.157-.625-1.872-1.793-2.157-3.348-.219-1.18-.191-2.613.07-4.203a11.413 11.413 0 0 1-1.289-2.785l-.027-.078c-.82-2.754-.59-5.824.887-8.55a11.187 11.187 0 0 1 6.675-5.423 11.39 11.39 0 0 1 3.121-.465zm8.223 9.946a35.444 35.444 0 0 1-2.082 4.562l-.008.012a35.907 35.907 0 0 1-2.68 4.234 8.18 8.18 0 0 0 3.825-3.504l.093-.171a8.225 8.225 0 0 0 .852-5.13zm-3.871 32.633l.074-.02a20.073 20.073 0 0 1 15.188 2.168 20.062 20.062 0 0 1 9.274 12.316 20.071 20.071 0 0 1-2.149 15.262 20.069 20.069 0 0 1-12.312 9.274 20.071 20.071 0 0 1-15.262-2.149 20.045 20.045 0 0 1-9.273-12.32 20.079 20.079 0 0 1 2.148-15.258c2.887-4.672 6.957-7.894 12.312-9.273z"></path></g><g id="SvgjsG51451" class="text" transform="translate(110.1, 317.88613333949326) scale(1)" light-content="false" fill="#2b2b2b"><path d="M-77.4 -23.88L-86.22 -23.88L-86.22 -9.12C-88.78 -7.72 -91.26 -7.02 -93.66 -7.02C-96.26 -7.02 -98.04 -7.98 -99 -9.9C-99.96 -11.82 -100.44 -15.36 -100.44 -20.52C-100.44 -23.56 -100.3 -25.97 -100.02 -27.75C-99.74 -29.53 -99.2 -30.92 -98.4 -31.92C-97.6 -32.92 -96.67 -33.57 -95.61 -33.87C-94.55 -34.17 -93.1 -34.32 -91.26 -34.32C-87.98 -34.32 -84.08 -34.22 -79.56 -34.02L-78.84 -40.74C-82.32 -41.7 -86.56 -42.18 -91.56 -42.18C-98.44 -42.18 -103.25 -40.64 -105.99 -37.56C-108.73 -34.48 -110.1 -28.9 -110.1 -20.82C-110.1 -13.22 -109.06 -7.72 -106.98 -4.32C-104.9 -0.92 -101.54 0.78 -96.9 0.78C-92.14 0.78 -88.16 -0.86 -84.96 -4.14L-84.12 0L-77.4 0Z M-41.58 -10.86L-38.58 0L-29.28 0L-41.22 -39C-41.62 -40.6 -42.68 -41.4 -44.4 -41.4L-53.04 -41.4C-53.8 -41.4 -54.48 -41.18 -55.08 -40.74C-55.68 -40.3 -56.06 -39.72 -56.22 -39L-68.16 0L-58.8 0L-55.8 -10.86ZM-43.56 -17.94L-53.88 -17.94L-50.4 -30.6C-50.28 -31.04 -50.12 -31.7 -49.92 -32.58C-49.72 -33.46 -49.58 -34.1 -49.5 -34.5L-47.88 -34.5C-47.8 -33.9 -47.52 -32.6 -47.04 -30.6Z M14.22 -41.4C12.22 -41.4 10.98 -40.42 10.5 -38.46L5.52 -17.82C5.36 -17.02 5.15 -15.9 4.89 -14.46C4.63 -13.02 4.48 -12.2 4.44 -12L3.66 -12C3.26 -14.56 2.9 -16.5 2.58 -17.82L-2.46 -38.46C-2.9 -40.42 -4.1 -41.4 -6.06 -41.4L-14.88 -41.4C-17.04 -41.4 -18.18 -40.26 -18.3 -37.98L-19.8 0L-11.16 0L-9.96 -34.26L-8.94 -34.26L-2.64 -8.64C-2.24 -6.68 -1 -5.7 1.08 -5.7L7.08 -5.7C9.16 -5.7 10.4 -6.68 10.8 -8.64L17.04 -34.26L18.06 -34.26L19.44 0L28.08 0L26.46 -37.98C26.38 -40.26 25.24 -41.4 23.04 -41.4Z M69.18 -7.14L53.28 -7.14C52.28 -7.14 51.56 -7.38 51.12 -7.86C50.68 -8.34 50.46 -9.14 50.46 -10.26L50.46 -18.24L66.96 -18.24L66.96 -24.84L50.46 -24.84L50.46 -31.14C50.46 -32.22 50.68 -33 51.12 -33.48C51.56 -33.96 52.28 -34.2 53.28 -34.2L69.18 -34.2L69.6 -40.98C65.84 -41.38 59.44 -41.58 50.4 -41.58C47.64 -41.58 45.44 -40.83 43.8 -39.33C42.16 -37.83 41.32 -35.8 41.28 -33.24L41.28 -8.16C41.32 -5.6 42.16 -3.57 43.8 -2.07C45.44 -0.57 47.64 0.18 50.4 0.18C59.44 0.18 65.84 -0.02 69.6 -0.42Z M97.5 -15.66C98.98 -15.18 100 -14.65 100.56 -14.07C101.12 -13.49 101.4 -12.5 101.4 -11.1C101.4 -9.46 100.99 -8.38 100.17 -7.86C99.35 -7.34 97.72 -7.08 95.28 -7.08C94.68 -7.08 90.12 -7.18 81.6 -7.38L81.06 -0.78C85.86 0.26 90.6 0.78 95.28 0.78C101.04 0.78 105.04 -0.05 107.28 -1.71C109.52 -3.37 110.64 -6.52 110.64 -11.16C110.64 -14.28 109.98 -16.81 108.66 -18.75C107.34 -20.69 105.08 -22.22 101.88 -23.34L94.02 -26.04C92.34 -26.6 91.2 -27.18 90.6 -27.78C90 -28.38 89.7 -29.36 89.7 -30.72C89.7 -32.4 90.1 -33.45 90.9 -33.87C91.7 -34.29 93.3 -34.5 95.7 -34.5C100.86 -34.5 105.18 -34.44 108.66 -34.32L109.26 -40.56C105.46 -41.64 100.92 -42.18 95.64 -42.18C90.04 -42.18 86.13 -41.41 83.91 -39.87C81.69 -38.33 80.58 -35.28 80.58 -30.72C80.58 -27.6 81.24 -25.08 82.56 -23.16C83.88 -21.24 86.08 -19.72 89.16 -18.6Z"></path></g><g id="SvgjsG51452" class="text" transform="translate(349.77000000000004, 317.88613333949326) scale(1)" light-content="false" fill="#6b6b6b"><path d="M-87.09 -24L-89.55 -24L-89.55 -7.02C-91.55 -5.26 -93.44 -3.9 -95.22 -2.94C-97 -1.98 -99.11 -1.5 -101.55 -1.5C-105.67 -1.5 -108.59 -2.98 -110.31 -5.94C-112.03 -8.9 -112.89 -13.8 -112.89 -20.64C-112.89 -27.96 -111.91 -33 -109.95 -35.76C-107.99 -38.52 -104.51 -39.9 -99.51 -39.9C-95.51 -39.9 -91.77 -39.68 -88.29 -39.24L-87.87 -41.04C-91.15 -41.76 -95.05 -42.12 -99.57 -42.12C-105.49 -42.12 -109.63 -40.54 -111.99 -37.38C-114.35 -34.22 -115.53 -28.68 -115.53 -20.76C-115.53 -13.2 -114.48 -7.73 -112.38 -4.35C-110.28 -0.97 -106.81 0.72 -101.97 0.72C-97.09 0.72 -92.87 -1.2 -89.31 -5.04L-88.83 0L-87.09 0Z M-48.63 -14.58L-43.53 0L-40.95 0L-55.41 -40.62C-55.61 -41.14 -55.97 -41.4 -56.49 -41.4L-59.85 -41.4C-60.37 -41.4 -60.73 -41.14 -60.93 -40.62L-75.39 0L-72.81 0L-67.71 -14.58ZM-49.41 -16.74L-66.93 -16.74L-60.21 -36L-59.01 -39.36L-57.33 -39.36L-56.13 -36Z M-25.71 -41.4L-28.17 -41.4L-28.17 -6.54C-28.17 -4.62 -27.57 -3.05 -26.37 -1.83C-25.17 -0.61 -23.53 0 -21.45 0C-14.09 0 -8.61 -0.1 -5.01 -0.3L-5.01 -2.1L-21.03 -2.1C-22.43 -2.1 -23.56 -2.53 -24.42 -3.39C-25.28 -4.25 -25.71 -5.38 -25.71 -6.78Z M30.39 -14.58L35.49 0L38.07 0L23.61 -40.62C23.41 -41.14 23.05 -41.4 22.53 -41.4L19.17 -41.4C18.65 -41.4 18.29 -41.14 18.09 -40.62L3.63 0L6.21 0L11.31 -14.58ZM29.61 -16.74L12.09 -16.74L18.81 -36L20.01 -39.36L21.69 -39.36L22.89 -36Z M63.93 -20.58L76.05 0L78.87 0L66.09 -21.54L78.09 -41.4L75.27 -41.4L63.99 -22.62L62.01 -22.62L50.73 -41.4L47.97 -41.4L59.91 -21.54L47.19 0L50.01 0L62.13 -20.58Z M104.67 -15.18L118.65 -41.4L115.95 -41.4L105.69 -22.02L103.59 -17.82L103.23 -17.82L102.15 -19.98C101.67 -20.94 101.31 -21.64 101.07 -22.08L90.81 -41.4L88.11 -41.4L102.15 -15.24L102.15 0L104.67 0Z"></path></g></g></svg>