<svg width="90" height="50" viewBox="0 0 90 50" fill="none" xmlns="http://www.w3.org/2000/svg">
<g clip-path="url(#clip0_148_3)">
<rect width="90" height="50" fill="white"/>
<path d="M32.973 19.5455V29H30.7156V19.5455H32.973ZM37.7199 29.1339C36.9751 29.1339 36.335 28.9815 35.7994 28.6768C35.267 28.3691 34.8561 27.9413 34.5669 27.3935C34.2806 26.8426 34.1375 26.204 34.1375 25.4776C34.1375 24.7482 34.2806 24.1096 34.5669 23.5618C34.8561 23.0109 35.267 22.5831 35.7994 22.2784C36.335 21.9706 36.9751 21.8168 37.7199 21.8168C38.4647 21.8168 39.1033 21.9706 39.6357 22.2784C40.1713 22.5831 40.5821 23.0109 40.8683 23.5618C41.1576 24.1096 41.3023 24.7482 41.3023 25.4776C41.3023 26.204 41.1576 26.8426 40.8683 27.3935C40.5821 27.9413 40.1713 28.3691 39.6357 28.6768C39.1033 28.9815 38.4647 29.1339 37.7199 29.1339ZM37.7338 27.4304C38.0046 27.4304 38.2339 27.3473 38.4216 27.1811C38.6093 27.0149 38.7525 26.7841 38.8509 26.4886C38.9525 26.1932 39.0033 25.8516 39.0033 25.4638C39.0033 25.0698 38.9525 24.7251 38.8509 24.4297C38.7525 24.1342 38.6093 23.9034 38.4216 23.7372C38.2339 23.571 38.0046 23.4879 37.7338 23.4879C37.4537 23.4879 37.2167 23.571 37.0228 23.7372C36.832 23.9034 36.6858 24.1342 36.5843 24.4297C36.4858 24.7251 36.4365 25.0698 36.4365 25.4638C36.4365 25.8516 36.4858 26.1932 36.5843 26.4886C36.6858 26.7841 36.832 27.0149 37.0228 27.1811C37.2167 27.3473 37.4537 27.4304 37.7338 27.4304ZM45.7641 31.8068C45.0901 31.8068 44.5131 31.7129 44.0329 31.5252C43.5528 31.3375 43.1758 31.0805 42.9019 30.7543C42.628 30.428 42.4633 30.0587 42.4079 29.6463L44.5454 29.5263C44.5854 29.6709 44.6592 29.7971 44.767 29.9048C44.8778 30.0125 45.0209 30.0956 45.1963 30.1541C45.3748 30.2126 45.5841 30.2418 45.8241 30.2418C46.2027 30.2418 46.5151 30.1495 46.7613 29.9648C47.0106 29.7833 47.1352 29.4647 47.1352 29.0092V27.7628H47.0567C46.9675 27.9813 46.8321 28.1767 46.6505 28.3491C46.4689 28.5214 46.2427 28.6568 45.9719 28.7553C45.7041 28.8538 45.3963 28.9031 45.0486 28.9031C44.5315 28.9031 44.0576 28.783 43.6267 28.543C43.1989 28.2998 42.8557 27.9244 42.5972 27.4165C42.3418 26.9057 42.214 26.2486 42.214 25.4453C42.214 24.6174 42.3464 23.9357 42.6111 23.4002C42.8757 22.8616 43.222 22.4631 43.6498 22.2045C44.0806 21.946 44.5438 21.8168 45.0393 21.8168C45.4117 21.8168 45.7303 21.8814 45.9949 22.0107C46.2627 22.1368 46.4827 22.3 46.6551 22.5C46.8274 22.7 46.9582 22.9078 47.0475 23.1232H47.1121V21.9091H49.3604V29.0277C49.3604 29.6278 49.2095 30.1341 48.9079 30.5465C48.6063 30.9589 48.1847 31.2713 47.643 31.4837C47.1014 31.6991 46.4751 31.8068 45.7641 31.8068ZM45.8334 27.2596C46.1073 27.2596 46.3412 27.1873 46.5351 27.0426C46.729 26.898 46.8782 26.6902 46.9829 26.4194C47.0875 26.1486 47.1398 25.8239 47.1398 25.4453C47.1398 25.0606 47.0875 24.7298 46.9829 24.4528C46.8813 24.1727 46.732 23.9573 46.5351 23.8065C46.3412 23.6557 46.1073 23.5803 45.8334 23.5803C45.5533 23.5803 45.3163 23.6572 45.1224 23.8111C44.9285 23.965 44.7808 24.1819 44.6792 24.462C44.5808 24.739 44.5315 25.0668 44.5315 25.4453C44.5315 25.8239 44.5823 26.1486 44.6839 26.4194C44.7854 26.6902 44.9316 26.898 45.1224 27.0426C45.3163 27.1873 45.5533 27.2596 45.8334 27.2596ZM54.1096 29.1339C53.3648 29.1339 52.7246 28.9815 52.1891 28.6768C51.6567 28.3691 51.2458 27.9413 50.9565 27.3935C50.6703 26.8426 50.5272 26.204 50.5272 25.4776C50.5272 24.7482 50.6703 24.1096 50.9565 23.5618C51.2458 23.0109 51.6567 22.5831 52.1891 22.2784C52.7246 21.9706 53.3648 21.8168 54.1096 21.8168C54.8543 21.8168 55.493 21.9706 56.0254 22.2784C56.5609 22.5831 56.9718 23.0109 57.258 23.5618C57.5473 24.1096 57.6919 24.7482 57.6919 25.4776C57.6919 26.204 57.5473 26.8426 57.258 27.3935C56.9718 27.9413 56.5609 28.3691 56.0254 28.6768C55.493 28.9815 54.8543 29.1339 54.1096 29.1339ZM54.1234 27.4304C54.3942 27.4304 54.6235 27.3473 54.8113 27.1811C54.999 27.0149 55.1421 26.7841 55.2406 26.4886C55.3422 26.1932 55.3929 25.8516 55.3929 25.4638C55.3929 25.0698 55.3422 24.7251 55.2406 24.4297C55.1421 24.1342 54.999 23.9034 54.8113 23.7372C54.6235 23.571 54.3942 23.4879 54.1234 23.4879C53.8433 23.4879 53.6064 23.571 53.4125 23.7372C53.2217 23.9034 53.0755 24.1342 52.9739 24.4297C52.8754 24.7251 52.8262 25.0698 52.8262 25.4638C52.8262 25.8516 52.8754 26.1932 52.9739 26.4886C53.0755 26.7841 53.2217 27.0149 53.4125 27.1811C53.6064 27.3473 53.8433 27.4304 54.1234 27.4304ZM62.313 25.2791C62.313 26.4179 62.1592 27.4673 61.8514 28.4276C61.5436 29.3847 61.0635 30.2741 60.411 31.0959H58.2228C58.4721 30.7912 58.7014 30.4203 58.9107 29.9833C59.123 29.5463 59.3062 29.0677 59.46 28.5476C59.617 28.0275 59.7386 27.4889 59.8248 26.9318C59.914 26.3748 59.9586 25.8239 59.9586 25.2791C59.9586 24.5497 59.8832 23.8157 59.7324 23.0771C59.5816 22.3353 59.3754 21.649 59.1138 21.0181C58.8522 20.3841 58.5552 19.864 58.2228 19.4577H60.411C61.0635 20.2795 61.5436 21.1705 61.8514 22.1307C62.1592 23.0878 62.313 24.1373 62.313 25.2791Z" fill="black"/>
</g>
<defs>
<clipPath id="clip0_148_3">
<rect width="90" height="50" fill="white"/>
</clipPath>
</defs>
</svg>
